<?xml version="1.0" encoding="UTF-8" standalone="no"?>
<!DOCTYPE svg PUBLIC "-//W3C//DTD SVG 1.1//EN" "http://www.w3.org/Graphics/SVG/1.1/DTD/svg11.dtd">
<svg width="100%" height="100%" viewBox="0 0 240 240" version="1.1" xmlns="http://www.w3.org/2000/svg" xmlns:xlink="http://www.w3.org/1999/xlink" xml:space="preserve" xmlns:serif="http://www.serif.com/" style="fill-rule:evenodd;clip-rule:evenodd;stroke-linejoin:round;stroke-miterlimit:2;">
    <style>
				.adaptive { fill: #000000; }
				.adaptive-2 { fill:rgb(0,104,56); }
				.adaptive-3 { fill:rgb(108,36,0); }								
        @media (prefers-color-scheme: dark) {
            .adaptive { fill: #ffffff; }
						.adaptive-2 { fill:rgb(109,234,252); }
						.adaptive-3 { fill:rgb(245,216,53); }
        }
    </style>
    <g transform="matrix(1,0,0,1,-58.012647,-294.757133)">
        <g transform="matrix(1.117288,0.006491,-0.001759,0.305054,-287.676563,221.660946)">
            <rect x="382" y="493.971" width="71" height="261.029" style="fill:rgb(65,211,1);"/>
        </g>
        <g transform="matrix(1.675932,0.009736,-0.00088,0.15251,-461.619859,256.19433)">
            <rect x="358.333" y="233" width="47.333" height="522" class="adaptive-2"/>
        </g>
        <g transform="matrix(1.675932,0.009736,-0.00088,0.15251,-461.619859,256.19433)">
            <rect x="405.667" y="233" width="47.333" height="522" style="fill:rgb(2,127,255);"/>
        </g>
        <g transform="matrix(0.558644,0.003245,-0.002639,0.45758,-113.73329,187.131543)">
            <rect x="311" y="233" width="142" height="173.981" class="adaptive"/>
        </g>
        <g transform="matrix(0.558644,0.003245,-0.002639,0.45758,-113.73329,187.131543)">
            <rect x="311" y="581" width="142" height="174" style="fill:rgb(250,1,2);"/>
        </g>
        <g transform="matrix(0.558644,0.003245,-0.002639,0.45758,-113.73329,187.131543)">
            <rect x="311" y="406.981" width="142" height="174.019" class="adaptive-3"/>
        </g>
    </g>
</svg>